<svg id="그룹_37115" data-name="그룹 37115" xmlns="http://www.w3.org/2000/svg" width="22" height="28" viewBox="0 0 22 28">
  <path id="패스_15214" data-name="패스 15214" d="M341.932,258.272a5.532,5.532,0,0,1,2.916-4.663,6.557,6.557,0,0,0-4.936-2.437c-2.105-.193-4.11,1.127-5.174,1.127s-2.716-1.1-4.458-1.064a6.734,6.734,0,0,0-5.591,3.072c-2.382,3.754-.612,9.317,1.714,12.36,1.133,1.49,2.484,3.164,4.26,3.1,1.714-.06,2.361-1,4.43-1s2.65,1,4.461.979c1.839-.035,3.008-1.525,4.131-3.015a13.066,13.066,0,0,0,1.873-3.492A5.52,5.52,0,0,1,341.932,258.272Z" transform="translate(-323.557 -241.772)" fill="#fff"/>
  <path id="패스_15215" data-name="패스 15215" d="M396.912,217.149a8.538,8.538,0,0,0,2.027-6.214,8.717,8.717,0,0,0-5.73,2.946,8.157,8.157,0,0,0-2.07,6.028A7.225,7.225,0,0,0,396.912,217.149Z" transform="translate(-381.757 -210.935)" fill="#fff"/>
</svg>
