<svg xmlns="http://www.w3.org/2000/svg" width="140" height="140" viewBox="0 0 140 140">
  <g id="그룹_38774" data-name="그룹 38774" transform="translate(-110 -192)">
    <g id="그룹_38740" data-name="그룹 38740">
      <circle id="타원_3896" data-name="타원 3896" cx="70" cy="70" r="70" transform="translate(110 192)" fill="#fcfcfc"/>
      <g id="그룹_38737" data-name="그룹 38737" transform="translate(2.928 -267)">
        <path id="패스_15587" data-name="패스 15587" d="M338.429,314.359a3.2,3.2,0,0,1-.937.178c-10.487-.789-23.135-8.721-23.135-8.721-22.569-11.85-18.69-49.3-18.69-49.3l10.477,1.081c2.552-20.984,12.1-24.752,12.1-24.752,19.061-4.68,15.321,45.191,15.321,45.191l1.689,6.277s.009.037.037.123l.668,2.49.056.225A98.91,98.91,0,0,1,338.429,314.359Z" transform="translate(-115.473 255.463)" fill="none" stroke="#e4e4e4" stroke-width="2"/>
        <path id="패스_15588" data-name="패스 15588" d="M270.658,305.816s-12.649,7.932-23.135,8.721a3.2,3.2,0,0,1-.937-.178,99.376,99.376,0,0,1,2.4-27.206l.056-.225.668-2.49c.028-.085.037-.123.037-.123l1.689-6.277s-3.73-49.872,15.331-45.191c0,0,9.549,3.768,12.1,24.752l10.476-1.081S293.226,293.966,270.658,305.816Z" transform="translate(-115.398 255.463)" fill="none" stroke="#e4e4e4" stroke-width="2"/>
        <path id="패스_15590" data-name="패스 15590" d="M305.09,301.7a2.521,2.521,0,0,0-2.522,2.521,3.77,3.77,0,0,1-7.54,0v-5.671c1.877-.67,3.172-2.06,3.172-3.67,0-2.264-2.55-4.1-5.694-4.1s-5.693,1.835-5.693,4.1c0,1.61,1.294,3,3.171,3.669v5.672a3.77,3.77,0,1,1-7.539,0,2.522,2.522,0,0,0-5.044,0,8.806,8.806,0,0,0,15.105,6.16,8.806,8.806,0,0,0,15.106-6.16A2.521,2.521,0,0,0,305.09,301.7Z" transform="translate(-115.436 256.487)" fill="#e4e4e4" stroke="#e4e4e4" stroke-width="1"/>
        <path id="패스_15592" data-name="패스 15592" d="M281.958,288.06c0,3.364-2.135,6.092-4.769,6.092s-4.769-2.728-4.769-6.092,2.136-6.092,4.769-6.092S281.958,284.7,281.958,288.06Z" transform="translate(-115.422 256.199)" fill="#e4e4e4"/>
        <path id="패스_15593" data-name="패스 15593" d="M312.592,288.06c0,3.364-2.135,6.092-4.769,6.092s-4.769-2.728-4.769-6.092,2.135-6.092,4.769-6.092S312.592,284.7,312.592,288.06Z" transform="translate(-115.45 256.199)" fill="#e4e4e4"/>
        <path id="패스_15596" data-name="패스 15596" d="M292.118,255.421l.069-.009.034.009Z" transform="translate(-115.436 255.752)" fill="#f59f52"/>
        <path id="패스_15597" data-name="패스 15597" d="M333.485,274.313" transform="translate(-115.473 255.991)" fill="none" stroke="#f59f52" stroke-linecap="round" stroke-linejoin="round" stroke-width="5.043"/>
      </g>
    </g>
    <g id="그룹_38078" data-name="그룹 38078">
      <circle id="타원_3894" data-name="타원 3894" cx="16" cy="16" r="16" transform="translate(216 297)" fill="#505050"/>
      <g id="그룹_37947" data-name="그룹 37947" transform="translate(-590 -7843)">
        <g id="그룹_35532" data-name="그룹 35532" transform="translate(-30 -10)">
          <rect id="사각형_34988" data-name="사각형 34988" width="18" height="14" transform="translate(843 8160)" fill="none" stroke="#fff" stroke-linecap="round" stroke-linejoin="round" stroke-width="1.5"/>
          <path id="패스_14225" data-name="패스 14225" d="M1,0H7V3H1Z" transform="translate(851 8157)" fill="none" stroke="#fff" stroke-linecap="round" stroke-linejoin="round" stroke-width="1.5"/>
          <g id="타원_3892" data-name="타원 3892" transform="translate(848 8163)" fill="none" stroke="#fff" stroke-width="1.5">
            <circle cx="4" cy="4" r="4" stroke="none"/>
            <circle cx="4" cy="4" r="3.25" fill="none"/>
          </g>
        </g>
        <rect id="사각형_34984" data-name="사각형 34984" width="24" height="24" transform="translate(810 8143)" fill="none" opacity="0.2"/>
      </g>
    </g>
  </g>
</svg>
