<svg xmlns="http://www.w3.org/2000/svg" width="86" height="86" viewBox="0 0 86 86">
  <g id="그룹_38742" data-name="그룹 38742" transform="translate(-60 -408)">
    <circle id="타원_3896" data-name="타원 3896" cx="43" cy="43" r="43" transform="translate(60 408)" fill="none"/>
    <g id="그룹_38741" data-name="그룹 38741" transform="translate(-17 296.848)">
      <g id="그룹_38737" data-name="그룹 38737" transform="translate(-43.072 -361.848)">
        <path id="패스_15587" data-name="패스 15587" d="M325.234,289.413a2.213,2.213,0,0,1-.65.124c-7.27-.548-16.039-6.062-16.039-6.062-15.646-8.237-12.957-34.268-12.957-34.268l7.263.751c1.769-14.586,8.389-17.206,8.389-17.206,13.214-3.253,10.622,31.413,10.622,31.413l1.171,4.364s.006.026.026.085l.463,1.731.039.156A68.931,68.931,0,0,1,325.234,289.413Z" transform="translate(-130.243 255.463)" fill="none" stroke="#e4e4e4" stroke-width="2"/>
        <path id="패스_15588" data-name="패스 15588" d="M263.239,283.475s-8.769,5.514-16.039,6.062a2.213,2.213,0,0,1-.65-.124,69.256,69.256,0,0,1,1.666-18.911l.039-.156.463-1.731c.019-.059.026-.085.026-.085l1.171-4.364s-2.586-34.667,10.628-31.413c0,0,6.62,2.619,8.389,17.206l7.263-.751S278.884,275.238,263.239,283.475Z" transform="translate(-115.398 255.463)" fill="none" stroke="#e4e4e4" stroke-width="2"/>
        <path id="패스_15590" data-name="패스 15590" d="M296.6,298.35a1.748,1.748,0,0,0-1.748,1.748,2.614,2.614,0,0,1-5.227,0v-3.931a2.923,2.923,0,0,0,2.2-2.544c0-1.57-1.768-2.842-3.947-2.842s-3.947,1.272-3.947,2.842a2.921,2.921,0,0,0,2.2,2.544V300.1a2.613,2.613,0,1,1-5.227,0,1.748,1.748,0,0,0-3.5,0,6.1,6.1,0,0,0,10.472,4.271,6.105,6.105,0,0,0,10.472-4.271A1.748,1.748,0,0,0,296.6,298.35Z" transform="translate(-124.802 238.46)" fill="#e4e4e4" stroke="#e4e4e4" stroke-width="1"/>
        <path id="패스_15592" data-name="패스 15592" d="M279.032,286.191c0,2.332-1.48,4.223-3.306,4.223s-3.306-1.891-3.306-4.223,1.481-4.223,3.306-4.223S279.032,283.859,279.032,286.191Z" transform="translate(-123.305 240.92)" fill="#e4e4e4"/>
        <path id="패스_15593" data-name="패스 15593" d="M309.666,286.191c0,2.332-1.48,4.223-3.306,4.223s-3.306-1.891-3.306-4.223,1.48-4.223,3.306-4.223S309.666,283.859,309.666,286.191Z" transform="translate(-132.64 240.92)" fill="#e4e4e4"/>
        <path id="패스_15596" data-name="패스 15596" d="M292.118,255.418l.047-.006.024.006Z" transform="translate(-129.317 248.69)" fill="#f59f52"/>
        <path id="패스_15597" data-name="패스 15597" d="M333.485,274.313" transform="translate(-141.921 243.094)" fill="none" stroke="#f59f52" stroke-linecap="round" stroke-linejoin="round" stroke-width="5.043"/>
      </g>
    </g>
  </g>
</svg>
