<svg xmlns="http://www.w3.org/2000/svg" width="22" height="22" viewBox="0 0 22 22">
  <g id="그룹_37125" data-name="그룹 37125" transform="translate(0)">
    <path id="패스_15218" data-name="패스 15218" d="M702.771,710.117a13.454,13.454,0,0,0-.2-2.322h-10.36v4.392h5.92a5.236,5.236,0,0,1-2.2,3.427v2.849h3.555a11.255,11.255,0,0,0,3.28-8.345Z" transform="translate(-680.771 -699.153)" fill="#3e82f1" fill-rule="evenodd"/>
    <path id="패스_15219" data-name="패스 15219" d="M607.467,756.257a10.927,10.927,0,0,0,7.491-2.691L611.3,750.78a6.9,6.9,0,0,1-3.833,1.06,6.732,6.732,0,0,1-6.333-4.579h-3.781v2.877a11.337,11.337,0,0,0,10.114,6.118Z" transform="translate(-596.172 -734.257)" fill="#32a753" fill-rule="evenodd"/>
    <path id="패스_15220" data-name="패스 15220" d="M591.092,686.511a6.379,6.379,0,0,1,0-4.214v-2.873h-3.815a10.817,10.817,0,0,0,0,9.961l3.815-2.873Z" transform="translate(-586.062 -673.411)" fill="#f9bb00" fill-rule="evenodd"/>
    <path id="패스_15221" data-name="패스 15221" d="M607.6,625.362a6.306,6.306,0,0,1,4.383,1.661l3.289-3.185a11.218,11.218,0,0,0-7.672-2.893,11.505,11.505,0,0,0-10.247,6.118l3.831,2.877a6.813,6.813,0,0,1,6.416-4.579Z" transform="translate(-596.172 -620.945)" fill="#e74133" fill-rule="evenodd"/>
  </g>
</svg>
