<svg xmlns="http://www.w3.org/2000/svg" width="40" height="40" viewBox="0 0 40 40">
  <g id="그룹_37863" data-name="그룹 37863" transform="translate(-201 -569)">
    <g id="그룹_37123" data-name="그룹 37123" transform="translate(149 17)">
      <circle id="타원_7" data-name="타원 7" cx="20" cy="20" r="20" transform="translate(52 552)" fill="#f0f0f6"/>
    </g>
    <g id="그룹_37124" data-name="그룹 37124" transform="translate(-374.894 -41.945)">
      <g id="그룹_37125" data-name="그룹 37125" transform="translate(586.062 620.945)">
        <path id="패스_15218" data-name="패스 15218" d="M701.843,709.847a11.525,11.525,0,0,0-.182-2.052h-9.449v3.881h5.4a4.616,4.616,0,0,1-2,3.028v2.517h3.242a9.785,9.785,0,0,0,2.992-7.374Z" transform="translate(-682.178 -699.652)" fill="#3e82f1" fill-rule="evenodd"/>
        <path id="패스_15219" data-name="패스 15219" d="M606.319,755.389a9.579,9.579,0,0,0,6.64-2.431l-3.243-2.517a6.053,6.053,0,0,1-9.011-3.179h-3.352v2.6a10.029,10.029,0,0,0,8.966,5.527Z" transform="translate(-596.286 -735.389)" fill="#32a753" fill-rule="evenodd"/>
        <path id="패스_15220" data-name="패스 15220" d="M590.481,685.836a5.933,5.933,0,0,1,0-3.813v-2.6h-3.352a10.045,10.045,0,0,0,0,9.012l3.352-2.6Z" transform="translate(-586.062 -673.93)" fill="#f9bb00" fill-rule="evenodd"/>
        <path id="패스_15221" data-name="패스 15221" d="M606.319,624.935a5.42,5.42,0,0,1,3.835,1.5l2.878-2.878a9.642,9.642,0,0,0-6.713-2.613,10.029,10.029,0,0,0-8.966,5.527l3.352,2.6a5.979,5.979,0,0,1,5.614-4.136Z" transform="translate(-596.286 -620.945)" fill="#e74133" fill-rule="evenodd"/>
      </g>
    </g>
  </g>
</svg>
