<svg xmlns="http://www.w3.org/2000/svg" width="172.731" height="204.066" viewBox="0 0 172.731 204.066">
  <g id="그룹_38749" data-name="그룹 38749" transform="translate(-165.971 -129.473)">
    <path id="패스_15614" data-name="패스 15614" d="M317.178,295.06a47.689,47.689,0,0,1-11.108,6.246h0l-4.193.723a47.521,47.521,0,0,0-1.851-10.523c34.14-19.12,29.672-38.668,19.276-40.69a10.062,10.062,0,0,0-4.836.255h0s-.013,0-.017,0a23.691,23.691,0,0,0,.034-2.882h.03c-.056-1.171-.156-2.338-.289-3.491v-.008l0,0a78.74,78.74,0,0,0-5.388-19.729l-.523-1.914c1.314-19.229-3.046-39.087-11.688-38.828-8.72.259-12.626,19.915-12.626,19.915l-.747,2.368a45.7,45.7,0,0,0-22.5-.1l-1.154-2.268s-3.906-19.656-12.626-19.915-13.083,19.967-11.654,39.36v0c-.177.618-4.714,10.349-5.967,21.268-.126,1.106-.22,2.225-.272,3.344a24.5,24.5,0,0,0,.039,2.878,10.042,10.042,0,0,0-4.831-.255c-10.4,2.022-14.864,21.57,19.276,40.69-2.32,7.977-3.768,19.894,3.146,30.3V336.12s-5.661,4.961-4.632,10.1c.994,4.987,11.947,8.409,22.854,3.612a6.831,6.831,0,0,0,4.1-6.253V324.8l-.315-.618a32.862,32.862,0,0,0,3.431.178c.92,0,1.815-.048,2.7-.121l-.285.562v18.774a6.834,6.834,0,0,0,4.1,6.253c10.911,4.8,21.864,1.374,22.858-3.612,1.029-5.138-4.632-10.1-4.632-10.1V321.8a29.387,29.387,0,0,0,3-5.84c3.351,1.236,8.051,2.216,9.882-1.034a5.707,5.707,0,0,0,.473-1.111,8.766,8.766,0,0,0,1.641-4.172c6.771-3.185,7.074-8.218,6.4-11.463A12.166,12.166,0,0,0,317.178,295.06Z" transform="translate(-20.098 -21.674)" fill="#fff"/>
    <path id="패스_15615" data-name="패스 15615" d="M316.024,182.595a11.494,11.494,0,0,0-8.838-16.788c.021-.373.035-.748.035-1.126a20.581,20.581,0,0,0-33.609-15.942,16.785,16.785,0,0,0-13.785-1.595,16.858,16.858,0,0,0-27.107,5.135A21.37,21.37,0,0,0,202.376,171.7c0,.419.016.833.04,1.245a12.961,12.961,0,0,0,2.6,25.63c.026.047.05.095.076.141a16.334,16.334,0,0,0,8.742,30.138,16.092,16.092,0,0,0,6.084-1.185c1.177-10.983,5.78-20.856,5.954-21.48-1.412-19.208,2.909-39.244,11.545-38.993s12.5,19.732,12.5,19.732l.631,2.385a45.24,45.24,0,0,1,11.461-1.481h.137a16.4,16.4,0,0,1,2.818.1,45.268,45.268,0,0,1,8.605,1.412l.524-2.415s3.866-19.474,12.5-19.732c3.35-.1,6.05,2.855,8.02,7.624a11.492,11.492,0,0,0,2.706,10.1,92.1,92.1,0,0,1,.819,21.267,84.4,84.4,0,0,1,5.621,18.913,21.848,21.848,0,0,0,6.9,1.108,22.135,22.135,0,0,0,5.355-43.615Z" transform="translate(-10.379 -5.108)" fill="#f59f52"/>
    <ellipse id="타원_4024" data-name="타원 4024" cx="18.869" cy="16.999" rx="18.869" ry="16.999" transform="translate(232.502 256.598)" fill="#ffecde"/>
    <path id="패스_15616" data-name="패스 15616" d="M352,247.543a16.783,16.783,0,0,1,.679,2.323,33.437,33.437,0,0,0-6.492,4.821c-8.416-1.832-17.006-7.144-17.006-7.144-20.2-10.473-16.722-43.563-16.722-43.563l9.371.955c2.286-18.549,10.831-21.873,10.831-21.873,17.062-4.137,13.715,39.931,13.715,39.931l2.442,8.953a53.915,53.915,0,0,0,2.3,6.562C353.584,244.729,352,247.543,352,247.543Z" transform="translate(-57.909 -21.109)" fill="#ffecde"/>
    <path id="패스_15617" data-name="패스 15617" d="M260.156,248.514a66.535,66.535,0,0,1-15.459,6.772,14.8,14.8,0,0,0-8.044-4.417,15.72,15.72,0,0,1,.684-2.355s-.39-1.73.863-8.973c1.14-6.589,2.318-6.624,2.318-6.624l2.443-8.953s-3.347-44.068,13.714-39.935c0,0,8.544,3.328,10.832,21.873l9.371-.955S280.353,238.041,260.156,248.514Z" transform="translate(-27.986 -21.492)" fill="#ffecde"/>
    <circle id="타원_4025" data-name="타원 4025" cx="4.272" cy="4.272" r="4.272" transform="translate(200.926 239.254)" fill="#ffecde"/>
    <circle id="타원_4026" data-name="타원 4026" cx="2.022" cy="2.022" r="2.022" transform="translate(201.672 234.09)" fill="#ffecde"/>
    <circle id="타원_4027" data-name="타원 4027" cx="2.022" cy="2.022" r="2.022" transform="translate(196.882 237.232)" fill="#ffecde"/>
    <circle id="타원_4028" data-name="타원 4028" cx="2.022" cy="2.022" r="2.022" transform="translate(207.188 235.21)" fill="#ffecde"/>
    <circle id="타원_4029" data-name="타원 4029" cx="4.272" cy="4.272" r="4.272" transform="translate(293.971 239.254)" fill="#ffecde"/>
    <circle id="타원_4030" data-name="타원 4030" cx="2.022" cy="2.022" r="2.022" transform="translate(297.724 234.09)" fill="#ffecde"/>
    <circle id="타원_4031" data-name="타원 4031" cx="2.022" cy="2.022" r="2.022" transform="translate(302.514 237.232)" fill="#ffecde"/>
    <circle id="타원_4032" data-name="타원 4032" cx="2.022" cy="2.022" r="2.022" transform="translate(292.208 235.21)" fill="#ffecde"/>
    <path id="패스_15618" data-name="패스 15618" d="M177.642,268.217l-1.8-6.055a.566.566,0,0,0-1.086,0l-1.8,6.055a.774.774,0,0,1-.52.52l-6.055,1.8a.567.567,0,0,0,0,1.086l6.055,1.8a.774.774,0,0,1,.52.52l1.8,6.055a.566.566,0,0,0,1.086,0l1.8-6.055a.772.772,0,0,1,.52-.52l6.055-1.8a.567.567,0,0,0,0-1.086l-6.055-1.8A.772.772,0,0,1,177.642,268.217Z" transform="translate(0 -52.376)" fill="#f59f52"/>
    <path id="패스_15619" data-name="패스 15619" d="M307.162,217.65l.061-.008.031.008Z" transform="translate(-55.903 -34.91)" fill="#f59f52"/>
    <path id="패스_15620" data-name="패스 15620" d="M368.134,245.5" transform="translate(-80.044 -45.94)" fill="none" stroke="#f59f52" stroke-linecap="round" stroke-linejoin="round" stroke-width="6.081"/>
    <path id="패스_15621" data-name="패스 15621" d="M248.221,166.543a4.083,4.083,0,1,1-4.083-4.083A4.083,4.083,0,0,1,248.221,166.543Z" transform="translate(-29.333 -13.061)" fill="#ffecde"/>
    <path id="패스_15622" data-name="패스 15622" d="M362.464,156.308a4.083,4.083,0,1,1-4.083-4.083A4.083,4.083,0,0,1,362.464,156.308Z" transform="translate(-74.566 -9.008)" fill="#ffecde"/>
    <path id="패스_15623" data-name="패스 15623" d="M361.543,171.821a1.409,1.409,0,1,1-1.409-1.409A1.409,1.409,0,0,1,361.543,171.821Z" transform="translate(-76.318 -16.209)" fill="#ffecde"/>
    <circle id="타원_4033" data-name="타원 4033" cx="4.083" cy="4.083" r="4.083" transform="matrix(0.999, -0.035, 0.035, 0.999, 305.32, 183.988)" fill="#ffecde"/>
    <path id="패스_15624" data-name="패스 15624" d="M208.109,202.473a2.562,2.562,0,1,1-3.621-.126A2.563,2.563,0,0,1,208.109,202.473Z" transform="translate(-14.928 -28.581)" fill="#ffecde"/>
    <path id="패스_15625" data-name="패스 15625" d="M215.564,244.232a4.083,4.083,0,1,1-5.771-.2A4.083,4.083,0,0,1,215.564,244.232Z" transform="translate(-16.837 -44.923)" fill="#ffecde"/>
    <path id="패스_15626" data-name="패스 15626" d="M413.146,234.413a1.409,1.409,0,1,1-1.992-.069A1.409,1.409,0,0,1,413.146,234.413Z" transform="translate(-96.9 -41.372)" fill="#ffecde"/>
    <circle id="타원_4034" data-name="타원 4034" cx="10.146" cy="10.146" r="10.146" transform="translate(304.201 150.837) rotate(-25.562)" fill="#f59f52"/>
    <path id="패스_15627" data-name="패스 15627" d="M197.7,183.383a2.493,2.493,0,1,1-2.492-2.493A2.492,2.492,0,0,1,197.7,183.383Z" transform="translate(-10.59 -20.358)" fill="#f59f52"/>
    <circle id="타원_4035" data-name="타원 4035" cx="3.849" cy="3.849" r="3.849" transform="translate(174.436 191.562)" fill="#f59f52"/>
    <path id="패스_15628" data-name="패스 15628" d="M426.746,207.894a2.851,2.851,0,1,1-2.851-2.851A2.85,2.85,0,0,1,426.746,207.894Z" transform="translate(-100.993 -29.921)" fill="#f59f52"/>
    <circle id="타원_4036" data-name="타원 4036" cx="4.166" cy="4.166" r="4.166" transform="translate(257.165 129.473)" fill="#f59f52"/>
    <path id="패스_15629" data-name="패스 15629" d="M432.716,266.406l-1.8-6.055a.566.566,0,0,0-1.085,0l-1.8,6.055a.773.773,0,0,1-.52.519l-6.055,1.8a.567.567,0,0,0,0,1.086l6.055,1.8a.772.772,0,0,1,.52.519l1.8,6.055a.566.566,0,0,0,1.085,0l1.8-6.055a.771.771,0,0,1,.52-.519l6.055-1.8a.567.567,0,0,0,0-1.086l-6.055-1.8A.772.772,0,0,1,432.716,266.406Z" transform="translate(-100.993 -51.659)" fill="#f59f52"/>
    <path id="패스_15630" data-name="패스 15630" d="M420.856,164.723a3.289,3.289,0,1,1-3.289-3.289A3.289,3.289,0,0,1,420.856,164.723Z" transform="translate(-98.314 -12.654)" fill="#ffecde"/>
    <path id="패스_15631" data-name="패스 15631" d="M376.773,279.665l.963,4.619,7.363-7.208-9.379-2.764Z" transform="translate(-83.047 -57.347)" fill="#f59f52"/>
    <path id="패스_15632" data-name="패스 15632" d="M300.543,289.944a5.63,5.63,0,1,1-11.26,0" transform="translate(-48.824 -63.536)" fill="none" stroke="#f59f52" stroke-linecap="round" stroke-linejoin="round" stroke-width="6.081"/>
    <path id="패스_15633" data-name="패스 15633" d="M319.185,289.944a5.63,5.63,0,0,1-11.261,0" transform="translate(-56.204 -63.536)" fill="none" stroke="#f59f52" stroke-linecap="round" stroke-linejoin="round" stroke-width="6.081"/>
    <path id="패스_15634" data-name="패스 15634" d="M309.68,273.7c0,2.025-2.281,3.667-5.095,3.667s-5.1-1.642-5.1-3.667,2.282-3.667,5.1-3.667S309.68,271.677,309.68,273.7Z" transform="translate(-52.865 -55.654)" fill="#f59f52"/>
    <ellipse id="타원_4037" data-name="타원 4037" cx="4.268" cy="5.452" rx="4.268" ry="5.452" transform="translate(233.746 206.495)" fill="#f59f52"/>
    <ellipse id="타원_4038" data-name="타원 4038" cx="4.268" cy="5.452" rx="4.268" ry="5.452" transform="translate(261.159 206.495)" fill="#f59f52"/>
    <line id="선_1040" data-name="선 1040" y2="7.26" transform="translate(251.72 219.148)" fill="none" stroke="#f59f52" stroke-linecap="round" stroke-linejoin="round" stroke-width="6.081"/>
    <path id="패스_15635" data-name="패스 15635" d="M327.476,223.094a45.36,45.36,0,0,0-19.552-4.4" transform="translate(-56.204 -35.326)" fill="none" stroke="#f59f52" stroke-linecap="round" stroke-linejoin="round" stroke-width="6.081"/>
    <path id="패스_15636" data-name="패스 15636" d="M328.123,204.127s3.9-19.653,12.625-19.913,13.083,19.97,11.651,39.363" transform="translate(-64.202 -21.673)" fill="none" stroke="#f59f52" stroke-linecap="round" stroke-linejoin="round" stroke-width="6.081"/>
    <path id="패스_15637" data-name="패스 15637" d="M271.638,204.127s-3.9-19.653-12.624-19.913-13.083,19.97-11.652,39.363" transform="translate(-32.12 -21.673)" fill="none" stroke="#f59f52" stroke-linecap="round" stroke-linejoin="round" stroke-width="6.081"/>
    <path id="패스_15638" data-name="패스 15638" d="M295.109,218.7a45.359,45.359,0,0,0-19.551,4.4" transform="translate(-43.39 -35.326)" fill="none" stroke="#f59f52" stroke-linecap="round" stroke-linejoin="round" stroke-width="6.081"/>
    <path id="패스_15639" data-name="패스 15639" d="M267.6,329.323a92.66,92.66,0,0,0,23.912,3.085,95.009,95.009,0,0,0,24.816-3.094" transform="translate(-40.237 -79.124)" fill="none" stroke="#f59f52" stroke-linecap="round" stroke-linejoin="round" stroke-width="6.081"/>
    <path id="패스_15640" data-name="패스 15640" d="M368.313,249.377c.193.684,5.679,12.415,6.239,24.614h-.027a24.075,24.075,0,0,1-.037,2.883" transform="translate(-80.115 -47.474)" fill="none" stroke="#f59f52" stroke-linecap="round" stroke-linejoin="round" stroke-width="6.081"/>
    <path id="패스_15641" data-name="패스 15641" d="M237.226,276.87a23.992,23.992,0,0,1-.037-2.879c.561-12.2,6.042-23.93,6.24-24.614" transform="translate(-28.187 -47.474)" fill="none" stroke="#f59f52" stroke-linecap="round" stroke-linejoin="round" stroke-width="6.081"/>
    <path id="패스_15642" data-name="패스 15642" d="M243.614,335.043c-34.155-19.123-29.687-38.673-19.288-40.7a10.066,10.066,0,0,1,4.83.257h.009c5,1.492,8.669,6.35,9.863,8.108.418.615.831,1.235,1.253,1.845,1.1,1.589,3.136,4.573,5.234,7.9l.179.289c.51.8,1.139,1.722,1.781,2.663.914,1.331,1.846,2.7,2.48,3.843" transform="translate(-20.117 -65.207)" fill="none" stroke="#f59f52" stroke-linecap="round" stroke-linejoin="round" stroke-width="6.081"/>
    <path id="패스_15643" data-name="패스 15643" d="M344.15,319.249c.634-1.144,1.57-2.521,2.484-3.852.643-.937,1.272-1.85,1.777-2.654l.179-.289c2.1-3.324,4.137-6.309,5.234-7.9.422-.611.835-1.231,1.253-1.845,1.194-1.758,4.848-6.6,9.844-8.1l.018,0h0a10.083,10.083,0,0,1,4.834-.257c10.4,2.025,14.867,21.575-19.288,40.7" transform="translate(-70.548 -65.207)" fill="none" stroke="#f59f52" stroke-linecap="round" stroke-linejoin="round" stroke-width="6.081"/>
    <path id="패스_15644" data-name="패스 15644" d="M285.4,389.165v18.777a6.84,6.84,0,0,1-4.1,6.253c-10.908,4.8-21.86,1.375-22.857-3.615-1.028-5.138,4.634-10.1,4.634-10.1V386.167c-11.657-17.541.451-39.387.451-39.387" transform="translate(-36.439 -86.04)" fill="none" stroke="#f59f52" stroke-linecap="round" stroke-linejoin="round" stroke-width="6.081"/>
    <path id="패스_15645" data-name="패스 15645" d="M334.373,346.78s12.108,21.846.451,39.387v14.315s5.662,4.959,4.634,10.1c-1,4.99-11.948,8.41-22.857,3.615a6.839,6.839,0,0,1-4.1-6.253V389.165" transform="translate(-58.015 -86.04)" fill="none" stroke="#f59f52" stroke-linecap="round" stroke-linejoin="round" stroke-width="6.081"/>
    <path id="패스_15646" data-name="패스 15646" d="M288.483,412.045a30.289,30.289,0,0,0,24.192,0" transform="translate(-48.507 -111.881)" fill="none" stroke="#f59f52" stroke-linecap="round" stroke-linejoin="round" stroke-width="6.081"/>
    <path id="패스_15647" data-name="패스 15647" d="M357.337,375.163a2.837,2.837,0,0,0,.311-.086,45.11,45.11,0,0,0,14.427-7.363,12.167,12.167,0,0,1,1.1,3.124c.674,3.244.371,8.279-6.4,11.463a8.2,8.2,0,0,1-2.756,5.306c-1.638,1.283-4.235,1.957-8.348.674l-.285-.091" transform="translate(-74.996 -94.328)" fill="none" stroke="#f59f52" stroke-linecap="round" stroke-linejoin="round" stroke-width="6.081"/>
  </g>
</svg>
