<?xml version="1.0" standalone="no"?>
<!DOCTYPE svg PUBLIC "-//W3C//DTD SVG 20010904//EN"
 "http://www.w3.org/TR/2001/REC-SVG-20010904/DTD/svg10.dtd">
<svg version="1.0" xmlns="http://www.w3.org/2000/svg"
 width="4290.000000pt" height="3254.000000pt" viewBox="0 0 4290.000000 3254.000000"
 preserveAspectRatio="xMidYMid meet">

<g transform="translate(0.000000,3254.000000) scale(0.100000,-0.100000)"
fill="#000000" stroke="none">
<path d="M24520 20480 c-14 -4 -54 -8 -90 -9 -37 -1 -70 -5 -75 -10 -6 -5 -32
-11 -60 -14 -61 -6 -144 -24 -167 -37 -10 -6 -29 -10 -43 -10 -14 0 -33 -4
-43 -9 -9 -5 -37 -15 -62 -22 -25 -7 -70 -24 -100 -37 -30 -13 -64 -28 -75
-32 -45 -18 -153 -72 -190 -95 -22 -14 -47 -28 -55 -32 -24 -10 -175 -116
-178 -125 -2 -4 -9 -8 -15 -8 -7 0 -23 -10 -37 -22 -14 -13 -63 -57 -110 -98
-47 -41 -120 -110 -164 -152 l-79 -78 -3076 0 c-3124 0 -3125 0 -3157 -33 -4
-4 -16 -7 -26 -7 -10 0 -36 -11 -58 -25 -22 -14 -44 -25 -50 -25 -11 0 -51
-21 -60 -31 -3 -3 -23 -18 -45 -34 -72 -52 -225 -222 -225 -250 0 -3 -11 -21
-25 -39 -14 -18 -25 -40 -25 -49 0 -10 -4 -17 -10 -17 -5 0 -10 -7 -10 -15 0
-9 -11 -33 -25 -55 l-25 -40 0 -3179 0 -3180 52 -98 c28 -54 56 -108 62 -120
6 -13 14 -23 19 -23 4 0 7 -5 7 -11 0 -26 137 -172 193 -206 15 -10 27 -21 27
-25 0 -4 7 -8 15 -8 8 0 15 -4 15 -10 0 -5 5 -10 10 -10 6 0 28 -11 50 -25 22
-14 46 -25 55 -25 8 0 15 -4 15 -10 0 -5 6 -10 14 -10 7 0 34 -11 60 -25 l47
-25 4117 4 c4044 4 4450 7 4569 36 23 5 55 10 72 10 16 0 33 5 36 10 3 6 15
10 25 10 29 0 129 58 200 115 82 66 230 242 230 272 0 4 12 33 26 63 40 82 42
89 49 165 12 131 22 927 30 2365 l8 1435 61 61 c34 33 86 90 118 125 31 35 73
82 93 104 62 67 255 366 255 396 0 4 16 35 35 69 19 34 35 68 35 76 0 8 4 14
9 14 5 0 11 12 14 28 5 29 44 146 58 174 5 10 9 27 9 37 0 11 5 23 10 26 6 3
10 17 10 30 0 13 7 44 14 67 8 24 16 72 17 108 1 36 6 70 11 76 11 15 3 570
-10 684 -10 88 -28 172 -43 202 -5 10 -9 29 -9 42 0 14 -4 28 -10 31 -5 3 -10
19 -10 36 0 16 -4 29 -10 29 -5 0 -10 11 -10 24 0 13 -7 29 -15 36 -8 7 -15
23 -15 36 0 13 -4 24 -10 24 -5 0 -10 7 -10 15 0 8 -5 25 -12 38 -6 12 -15 30
-19 39 -25 51 -94 177 -110 200 -11 14 -19 31 -19 36 0 6 -3 12 -8 14 -4 2
-23 27 -42 57 -18 29 -48 70 -64 90 -17 21 -44 55 -61 76 -16 22 -88 99 -160
171 -117 118 -172 167 -259 229 -16 11 -41 30 -56 43 -15 12 -31 22 -34 22 -3
0 -32 17 -63 37 -70 45 -223 123 -240 123 -7 0 -13 5 -13 10 0 6 -9 10 -19 10
-11 0 -41 11 -67 25 -26 14 -55 25 -65 25 -10 0 -21 5 -24 10 -3 6 -19 10 -35
10 -16 0 -32 5 -35 10 -3 6 -16 10 -27 10 -12 0 -35 4 -52 9 -102 30 -146 41
-186 46 -25 3 -79 10 -120 16 -100 13 -418 20 -450 9z m422 -529 c24 -5 63
-15 88 -21 25 -7 63 -14 85 -17 22 -3 44 -9 50 -14 5 -5 22 -9 37 -9 16 0 36
-4 46 -9 9 -5 31 -14 47 -21 134 -55 290 -134 326 -166 8 -8 21 -14 27 -14 7
0 12 -4 12 -10 0 -5 7 -10 15 -10 8 0 15 -4 15 -10 0 -5 7 -10 15 -10 8 0 15
-4 15 -8 0 -5 9 -13 19 -18 22 -10 123 -96 191 -164 82 -80 130 -142 207 -265
7 -11 21 -37 30 -57 10 -21 21 -38 25 -38 5 0 8 -9 8 -19 0 -11 4 -22 9 -26 6
-3 22 -31 36 -63 15 -31 31 -65 36 -74 5 -10 9 -24 9 -32 0 -7 7 -19 15 -26 8
-7 15 -23 15 -36 0 -13 4 -24 9 -24 8 0 16 -26 28 -100 3 -19 9 -40 14 -46 15
-19 39 -252 39 -384 0 -141 -22 -356 -39 -388 -6 -11 -11 -32 -11 -46 0 -14
-4 -28 -10 -31 -5 -3 -10 -17 -10 -30 0 -13 -4 -27 -10 -30 -5 -3 -10 -14 -10
-23 0 -9 -12 -42 -26 -72 -15 -30 -30 -64 -34 -75 -9 -24 -76 -159 -97 -195
-53 -93 -62 -105 -80 -102 -26 5 -2373 2353 -2373 2374 0 10 5 18 12 18 6 0
26 11 44 25 18 14 37 25 43 25 6 0 11 3 11 8 0 4 17 15 38 25 20 10 51 26 67
36 17 11 38 20 48 20 9 1 17 6 17 11 0 6 8 10 18 10 10 0 22 4 28 8 5 5 32 17
59 26 28 10 59 21 70 26 19 8 34 12 120 29 22 5 53 13 68 20 16 6 45 11 65 12
20 0 46 4 57 9 27 12 414 12 467 1z m-419 -1880 c647 -648 1177 -1184 1177
-1191 0 -12 -39 -49 -52 -50 -4 0 -32 -16 -62 -35 -30 -19 -59 -35 -63 -35 -4
0 -42 -16 -83 -36 -41 -20 -86 -41 -100 -46 -14 -6 -33 -14 -42 -19 -10 -5
-26 -9 -35 -9 -10 0 -27 -7 -37 -15 -11 -8 -30 -15 -42 -15 -13 0 -26 -4 -29
-10 -3 -5 -21 -10 -39 -10 -17 0 -36 -4 -41 -9 -6 -5 -32 -12 -60 -15 -27 -3
-84 -10 -125 -15 -94 -12 -306 -12 -385 0 -33 5 -86 12 -118 15 -31 4 -60 10
-63 15 -3 5 -20 9 -39 9 -19 0 -37 5 -40 10 -3 6 -19 10 -35 10 -16 0 -31 4
-34 9 -3 5 -29 16 -58 25 -29 9 -62 21 -73 25 -75 33 -95 43 -100 51 -3 6 -15
10 -26 10 -10 0 -19 5 -19 10 0 6 -7 10 -16 10 -9 0 -39 16 -65 35 -27 19 -52
35 -55 35 -23 0 -146 102 -264 220 -87 87 -103 105 -155 175 -17 22 -33 42
-37 43 -5 2 -8 8 -8 14 0 6 -12 26 -26 45 -51 67 -184 333 -184 368 0 7 -4 17
-10 20 -5 3 -10 15 -10 26 0 10 -4 27 -9 37 -11 22 -31 98 -38 142 -2 19 -7
42 -11 50 -10 24 -28 341 -20 354 4 6 8 50 8 98 0 48 5 90 10 93 6 3 10 23 10
43 1 20 7 55 15 77 8 22 15 48 15 58 0 9 4 25 9 35 5 9 14 35 20 57 7 22 16
49 21 60 11 25 39 92 52 125 6 14 15 34 21 45 5 10 22 42 36 70 61 116 95 165
116 165 15 0 392 -372 1198 -1179z m-1873 1069 c0 -22 -4 -40 -10 -40 -5 0
-10 -8 -10 -18 0 -10 -7 -27 -15 -38 -8 -10 -15 -29 -15 -41 0 -12 -4 -25 -10
-28 -5 -3 -10 -21 -10 -40 0 -19 -4 -36 -9 -39 -5 -3 -11 -20 -14 -38 -9 -50
-33 -151 -40 -168 -29 -70 -44 -750 -17 -785 4 -5 10 -32 13 -60 6 -61 25
-137 38 -149 5 -6 9 -27 9 -47 0 -21 5 -41 10 -44 6 -3 10 -15 10 -26 0 -10 4
-27 9 -37 8 -15 26 -59 51 -127 16 -42 29 -72 65 -145 64 -128 68 -134 97
-177 15 -23 28 -46 28 -52 0 -6 3 -11 8 -11 4 0 16 -16 26 -35 11 -19 23 -35
28 -35 4 0 8 -5 8 -10 0 -6 5 -16 10 -23 6 -7 18 -22 28 -33 135 -166 290
-318 402 -395 19 -13 44 -31 54 -41 11 -10 28 -20 38 -24 10 -3 18 -10 18 -15
0 -5 6 -9 14 -9 8 0 16 -3 18 -7 4 -11 72 -53 141 -88 31 -16 57 -33 57 -37 0
-4 7 -8 15 -8 8 0 23 -4 33 -9 24 -12 132 -61 162 -73 14 -6 33 -14 42 -19 10
-5 27 -9 37 -9 11 0 23 -4 26 -10 3 -5 16 -10 28 -10 12 0 35 -7 51 -15 15 -8
38 -15 50 -15 12 0 26 -4 32 -9 5 -5 27 -11 49 -14 98 -14 169 -28 179 -36 38
-31 584 -25 686 8 19 6 52 11 72 11 20 0 40 5 43 10 3 6 21 10 40 10 19 0 37
5 40 10 3 6 21 10 40 10 19 0 37 5 40 10 3 6 16 10 29 10 12 0 31 7 42 15 10
8 27 15 37 15 9 0 25 4 35 9 9 5 28 13 42 19 14 5 38 15 53 21 16 6 33 9 38 6
5 -4 9 -406 9 -1011 0 -922 -1 -1004 -16 -1004 -9 0 -25 10 -36 23 -11 12 -63
67 -116 122 -96 100 -340 357 -483 509 -123 132 -751 758 -808 806 -68 58 -71
59 -166 92 -71 24 -95 27 -215 28 -106 0 -145 -4 -182 -18 -26 -10 -50 -21
-54 -25 -4 -4 -16 -7 -26 -7 -19 0 -53 -17 -76 -38 -7 -6 -35 -26 -60 -44 -26
-17 -49 -34 -52 -37 -6 -7 -57 -51 -145 -126 -32 -27 -64 -56 -71 -62 -7 -7
-15 -13 -18 -13 -3 0 -18 -12 -34 -27 -16 -16 -55 -50 -87 -78 -33 -27 -69
-59 -81 -70 -12 -11 -37 -33 -55 -49 -19 -16 -54 -48 -79 -70 -95 -85 -204
-182 -233 -206 -16 -14 -44 -38 -60 -53 -25 -23 -109 -98 -181 -162 -6 -5 -53
-47 -103 -92 -85 -77 -133 -102 -133 -70 0 6 -29 51 -63 99 -34 48 -127 181
-206 295 -80 114 -148 210 -151 213 -4 3 -15 20 -25 38 -11 17 -23 32 -27 32
-4 0 -8 6 -8 13 0 6 -24 44 -54 83 -29 39 -62 85 -72 103 -10 17 -22 31 -26
31 -4 0 -8 5 -8 11 0 9 -42 72 -60 89 -3 3 -9 12 -15 21 -9 15 -47 69 -85 123
-8 12 -24 36 -35 54 -11 17 -23 32 -27 32 -5 0 -8 7 -8 15 0 8 -4 15 -8 15 -5
0 -18 17 -30 38 -11 20 -28 46 -36 57 -9 11 -32 40 -51 65 -19 25 -35 51 -35
58 0 6 -4 12 -8 12 -4 0 -16 15 -27 33 -10 17 -21 34 -25 37 -3 3 -80 111
-170 240 -90 129 -166 237 -170 240 -3 3 -15 20 -25 38 -11 17 -23 32 -27 32
-4 0 -8 7 -8 15 0 8 -4 15 -10 15 -5 0 -10 5 -10 11 0 6 -16 30 -35 53 -19 24
-35 48 -35 54 0 6 -4 12 -9 14 -4 2 -52 66 -106 143 -53 77 -101 142 -106 143
-5 2 -9 10 -9 18 0 8 -4 14 -8 14 -4 0 -16 15 -27 33 -10 17 -21 34 -25 37 -3
3 -23 30 -44 60 -22 30 -43 57 -48 58 -4 2 -8 10 -8 17 0 7 -3 15 -8 17 -4 2
-25 28 -47 58 -22 30 -45 61 -52 68 -7 8 -27 35 -45 60 -17 26 -38 51 -45 55
-7 4 -13 13 -13 18 0 6 -6 17 -14 25 -8 7 -23 24 -33 37 -33 42 -178 153 -234
179 -107 49 -130 58 -154 58 -13 0 -27 5 -30 10 -8 14 -203 13 -262 -1 -27 -6
-61 -17 -76 -25 -16 -8 -35 -14 -43 -14 -7 0 -30 -10 -51 -22 -21 -11 -47 -26
-58 -32 -23 -12 -108 -80 -141 -111 -11 -12 -45 -54 -75 -95 -29 -41 -56 -77
-59 -80 -3 -3 -9 -13 -15 -22 -43 -72 -281 -434 -287 -436 -4 -2 -8 -8 -8 -14
0 -5 -20 -38 -45 -72 -25 -35 -45 -66 -45 -70 0 -3 -16 -28 -35 -55 -19 -26
-35 -52 -35 -56 0 -4 -16 -29 -35 -55 -19 -26 -35 -51 -35 -55 0 -4 -16 -29
-35 -55 -19 -26 -35 -53 -35 -59 0 -6 -4 -11 -10 -11 -5 0 -10 -5 -10 -10 0
-12 -52 -94 -62 -98 -5 -2 -8 -8 -8 -13 0 -12 -52 -93 -62 -97 -5 -2 -8 -10
-8 -18 0 -8 -4 -14 -10 -14 -5 0 -10 -5 -10 -12 0 -6 -11 -26 -25 -44 -14 -18
-25 -35 -25 -38 0 -3 -25 -44 -55 -91 -30 -46 -55 -89 -55 -94 0 -5 -3 -11 -8
-13 -9 -4 -87 -125 -109 -168 -4 -8 -15 -24 -25 -34 -10 -11 -18 -23 -18 -28
0 -4 -16 -30 -35 -57 -19 -26 -35 -51 -35 -55 0 -4 -8 -19 -19 -34 -10 -15
-42 -65 -71 -112 -30 -47 -57 -86 -62 -88 -4 -2 -8 -8 -8 -13 0 -5 -36 -65
-80 -134 -44 -69 -80 -127 -80 -130 0 -2 -20 -33 -45 -68 -25 -36 -45 -68 -45
-71 0 -3 -15 -27 -32 -53 -43 -63 -55 -82 -75 -120 -9 -18 -20 -33 -25 -33 -4
0 -8 -5 -8 -12 0 -6 -11 -26 -25 -44 -14 -18 -25 -37 -25 -43 0 -6 -4 -11 -10
-11 -5 0 -10 -5 -10 -11 0 -6 -15 -31 -32 -57 -33 -47 -59 -90 -79 -128 -12
-24 -48 -48 -57 -39 -4 4 -6 1010 -5 2236 l3 2230 30 42 c16 23 38 51 47 62
28 32 119 95 136 95 9 0 19 5 22 10 4 7 972 10 2871 10 l2864 0 0 -40z m-3301
-1742 c50 -18 88 -50 140 -118 14 -19 31 -41 38 -47 6 -7 42 -57 79 -110 37
-54 72 -99 76 -101 4 -2 8 -9 8 -15 0 -7 11 -24 25 -39 14 -15 25 -31 25 -35
0 -5 16 -26 35 -48 19 -22 35 -45 35 -52 0 -6 4 -13 8 -15 4 -1 70 -93 147
-203 76 -110 144 -205 152 -211 7 -6 13 -14 13 -18 0 -8 139 -208 150 -216 3
-3 9 -12 12 -20 3 -8 29 -46 57 -83 28 -37 51 -71 51 -76 0 -4 11 -18 25 -31
14 -13 25 -29 25 -35 0 -6 8 -20 18 -31 9 -11 46 -62 81 -114 36 -52 68 -97
71 -100 4 -3 19 -25 35 -49 15 -25 36 -54 46 -65 11 -11 19 -24 19 -28 0 -5
11 -21 25 -36 14 -15 25 -30 25 -35 0 -4 11 -20 25 -35 14 -15 25 -32 25 -39
0 -6 4 -13 8 -15 4 -1 61 -79 127 -173 65 -93 122 -171 127 -173 4 -2 8 -8 8
-14 0 -11 51 -81 63 -86 4 -2 7 -10 7 -18 0 -8 3 -14 8 -14 4 0 20 -21 37 -48
16 -26 32 -49 35 -52 15 -13 80 -109 80 -118 0 -6 4 -12 8 -14 5 -2 73 -95
152 -208 79 -113 148 -209 152 -215 35 -43 78 -106 78 -114 0 -6 4 -11 8 -11
5 0 18 -18 31 -40 12 -22 28 -45 34 -52 7 -7 24 -29 37 -48 27 -39 45 -54 102
-87 44 -26 130 -31 188 -10 30 10 125 69 140 86 3 4 23 19 45 36 22 16 47 36
55 45 8 9 40 36 70 59 30 24 81 66 112 95 31 28 72 64 90 79 18 16 51 45 73
65 22 21 58 52 80 71 22 19 78 69 125 112 47 42 99 88 115 101 17 12 39 32 51
43 28 28 136 123 289 256 72 62 137 120 145 129 8 8 37 34 65 55 27 22 65 55
85 74 57 54 91 71 143 71 26 0 47 -4 47 -10 0 -5 6 -10 13 -10 8 0 72 -57 143
-127 126 -125 464 -472 464 -477 0 -1 55 -59 123 -127 67 -69 156 -161 197
-205 41 -44 174 -183 295 -309 121 -127 250 -261 285 -299 36 -38 111 -117
167 -175 l103 -106 0 -262 c0 -164 -4 -264 -10 -268 -5 -3 -10 -16 -10 -28 -1
-54 -100 -197 -136 -197 -8 0 -14 -4 -14 -8 0 -23 -77 -31 -300 -32 -147 -1
-239 -5 -247 -12 -19 -15 -5048 -22 -6363 -8 -1373 14 -1653 19 -1664 31 -6 5
-16 9 -23 9 -24 0 -127 100 -152 148 -8 15 -19 36 -25 47 -7 13 -12 130 -14
313 l-4 293 26 39 c14 22 26 43 26 46 0 4 16 29 35 55 19 27 35 52 35 55 0 4
16 28 35 54 19 26 35 51 35 55 0 5 11 23 25 41 14 18 25 37 25 43 0 6 5 11 10
11 6 0 10 7 10 15 0 8 5 15 10 15 6 0 10 5 10 10 0 12 52 94 63 98 4 2 7 8 7
13 0 5 20 40 45 79 25 39 45 75 45 80 0 6 5 10 10 10 6 0 10 5 10 11 0 6 11
25 25 43 14 18 25 38 25 44 0 6 4 12 8 14 9 3 82 114 82 124 0 4 16 28 35 54
19 26 35 51 35 55 0 4 16 29 35 55 19 26 35 51 35 54 0 9 74 120 83 124 4 2 7
8 7 13 0 5 36 65 80 134 44 69 80 128 80 130 0 3 15 26 33 52 17 27 37 55 42
64 9 15 59 93 93 145 6 10 20 34 29 52 9 17 20 32 25 32 4 0 8 4 8 10 0 9 67
120 79 130 4 3 15 22 26 43 11 21 27 46 35 55 8 9 24 34 35 55 11 21 28 47 38
57 9 11 17 21 17 24 0 3 36 62 80 131 44 69 80 130 80 135 0 6 4 10 9 10 5 0
16 15 25 33 22 42 33 60 84 134 23 34 42 65 42 69 0 3 16 29 35 55 19 27 35
54 35 59 0 6 5 10 10 10 6 0 10 5 10 12 0 6 11 26 25 44 14 18 25 37 25 43 0
6 5 11 10 11 6 0 10 5 10 12 0 6 11 26 25 44 14 18 25 37 25 43 0 6 5 11 10
11 6 0 10 5 10 12 0 6 11 26 25 44 14 18 25 35 25 38 0 3 45 75 100 161 55 86
100 160 100 166 0 5 5 9 10 9 6 0 10 5 10 11 0 6 11 25 25 43 14 18 25 36 25
41 0 4 16 29 35 55 19 26 35 53 35 59 0 6 3 11 8 11 4 0 13 13 20 29 29 66
133 141 196 141 16 0 46 -6 65 -12z"/>
<path d="M15290 9845 l0 -425 60 0 60 0 0 425 0 425 -60 0 -60 0 0 -425z"/>
<path d="M16130 9845 l0 -425 60 0 60 0 0 425 0 425 -60 0 -60 0 0 -425z"/>
<path d="M16970 9846 l0 -424 58 2 57 2 3 422 2 422 -60 0 -60 0 0 -424z"/>
<path d="M17780 9850 l0 -420 60 0 60 0 0 210 0 210 60 0 60 0 0 50 0 50 -60
0 -60 0 0 160 0 160 -60 0 -60 0 0 -420z"/>
<path d="M18900 9850 l0 -420 60 0 60 0 0 420 0 420 -60 0 -60 0 0 -420z"/>
<path d="M20560 9845 l0 -425 55 0 55 0 0 38 c0 20 0 210 1 422 l1 385 -56 3
-56 3 0 -426z"/>
<path d="M21390 9848 l0 -423 57 1 58 1 3 421 2 422 -60 0 -60 0 0 -422z"/>
<path d="M22410 10065 l0 -205 55 0 54 0 3 68 3 67 58 3 57 3 0 49 0 50 -60 0
-60 0 0 85 0 85 -55 0 -55 0 0 -205z"/>
<path d="M24300 10020 l0 -251 58 3 57 3 3 103 3 102 54 0 55 0 0 45 0 44 -56
3 -56 3 0 98 1 97 -60 0 -59 0 0 -250z"/>
<path d="M26020 10045 l0 -225 60 0 60 0 0 225 0 225 -60 0 -60 0 0 -225z"/>
<path d="M26870 9850 l0 -420 60 0 60 0 -2 418 -3 417 -57 3 -58 3 0 -421z"/>
<path d="M27660 9845 l0 -425 60 0 60 0 0 220 0 219 63 3 62 3 0 45 0 45 -62
3 -63 3 0 154 0 155 -60 0 -60 0 0 -425z"/>
<path d="M18730 10120 l0 -140 -55 0 -55 0 0 -47 0 -48 52 0 53 0 3 -212 2
-213 55 0 55 0 0 400 0 400 -55 0 -55 0 0 -140z"/>
<path d="M24660 10200 l0 -50 55 0 56 0 -3 -62 -3 -63 -52 -3 -53 -3 0 -45 0
-44 310 0 310 0 0 45 0 45 -50 0 -50 0 0 65 0 65 55 0 55 0 0 50 0 50 -315 0
-315 0 0 -50z m400 -115 l0 -66 -87 3 -88 3 -3 63 -3 62 91 0 90 0 0 -65z"/>
<path d="M22800 10095 l0 -145 290 0 290 0 0 45 0 45 -235 0 -235 0 0 100 0
100 -55 0 -55 0 0 -145z"/>
<path d="M19220 10185 l0 -45 231 0 232 0 -6 -77 c-3 -43 -8 -86 -12 -95 -5
-14 3 -18 50 -23 31 -4 58 -5 61 -2 14 13 24 90 24 185 l0 102 -290 0 -290 0
0 -45z"/>
<path d="M22006 10215 c-86 -30 -136 -96 -136 -178 0 -62 19 -105 63 -144 48
-42 96 -56 175 -51 126 8 193 64 200 168 6 77 -11 122 -59 164 -63 53 -162 70
-243 41z m163 -116 c55 -55 32 -137 -45 -158 -95 -26 -175 59 -128 138 22 37
47 49 101 50 33 1 47 -5 72 -30z"/>
<path d="M25562 10204 c-104 -52 -137 -160 -80 -264 45 -83 166 -121 283 -89
180 49 195 291 23 364 -61 25 -164 20 -226 -11z m183 -87 c32 -17 44 -39 45
-84 0 -58 -41 -93 -110 -93 -41 0 -53 5 -79 31 -89 88 27 206 144 146z"/>
<path d="M23937 10145 c-10 -119 -66 -209 -157 -251 -19 -9 -37 -18 -38 -20
-6 -4 58 -94 67 -94 13 0 96 56 124 86 16 16 35 41 43 56 19 36 28 35 54 -7
23 -37 60 -67 118 -95 l36 -18 31 46 31 46 -48 24 c-57 29 -110 87 -126 141
-7 21 -12 66 -12 100 l0 61 -59 0 -58 0 -6 -75z"/>
<path d="M14880 10194 c-19 -8 -45 -25 -58 -37 -108 -100 -113 -371 -8 -485
53 -59 152 -79 222 -46 48 23 100 87 121 148 25 74 22 214 -6 286 -46 121
-165 180 -271 134z m131 -115 c11 -11 27 -36 35 -55 16 -39 19 -162 4 -215
-25 -88 -104 -118 -154 -59 -88 105 -46 350 60 350 21 0 42 -8 55 -21z"/>
<path d="M15590 9910 l0 -280 205 0 205 0 0 280 0 280 -205 0 -205 0 0 -280z
m290 0 l0 -190 -85 0 -85 0 0 190 0 190 85 0 85 0 0 -190z"/>
<path d="M16420 10140 l0 -50 84 0 c54 0 86 -4 88 -11 2 -7 0 -46 -4 -87 -13
-123 -73 -231 -157 -282 -22 -14 -41 -28 -41 -32 0 -4 14 -27 31 -52 l31 -44
32 19 c50 29 103 90 140 158 l34 64 21 -41 c36 -70 140 -172 175 -172 12 0 66
72 66 88 0 5 -13 15 -30 22 -42 18 -108 92 -138 158 -18 40 -27 79 -30 134
l-5 78 87 0 86 0 0 50 0 50 -235 0 -235 0 0 -50z"/>
<path d="M18310 10140 l0 -50 65 0 65 0 0 -54 c0 -125 -46 -250 -119 -323 -45
-45 -45 -45 -2 -100 l24 -31 30 21 c35 26 104 130 112 169 9 39 17 35 39 -18
19 -47 100 -144 120 -144 6 0 25 17 43 37 l31 38 -52 55 c-68 71 -96 144 -104
263 l-5 87 62 0 61 0 0 50 0 50 -185 0 -185 0 0 -50z"/>
<path d="M20030 10010 l0 -180 80 0 80 0 0 -70 0 -70 -109 0 -108 0 4 -27 c12
-79 1 -73 126 -73 113 0 328 15 380 26 24 5 27 10 27 50 0 42 -1 43 -27 39
-16 -2 -61 -7 -100 -10 l-73 -5 0 70 0 70 80 0 80 0 0 50 0 50 -160 0 -160 0
0 85 0 85 155 0 155 0 0 45 0 45 -215 0 -215 0 0 -180z"/>
<path d="M20840 10140 l0 -50 86 0 87 0 -5 -83 c-8 -126 -70 -244 -157 -297
-22 -14 -41 -28 -41 -32 0 -4 14 -27 31 -52 l31 -44 33 20 c50 29 114 103 142
164 27 59 38 66 47 30 13 -53 143 -186 181 -186 12 0 65 72 65 88 0 4 -16 16
-36 27 -90 48 -155 163 -162 287 l-5 78 87 0 86 0 0 50 0 50 -235 0 -235 0 0
-50z"/>
<path d="M26326 10183 c-3 -4 -6 -130 -6 -280 l1 -273 37 0 c77 0 328 20 390
31 l64 11 -6 46 c-3 25 -8 47 -10 49 -2 2 -56 -3 -120 -12 -64 -8 -144 -15
-177 -15 l-59 0 0 225 0 225 -53 0 c-30 0 -57 -3 -61 -7z"/>
<path d="M27150 9909 l0 -282 198 7 c108 3 212 9 230 12 32 6 33 7 30 53 -3
46 -3 46 -38 44 -19 -1 -95 -5 -167 -9 l-133 -7 0 186 0 187 140 0 140 0 0 45
0 45 -200 0 -200 0 0 -281z"/>
<path d="M17280 10135 l0 -45 135 0 135 0 0 -31 c0 -47 -48 -158 -96 -221 -44
-56 -105 -107 -183 -151 l-41 -24 36 -47 35 -47 37 22 c213 128 316 293 335
537 l4 52 -198 0 -199 0 0 -45z"/>
<path d="M19419 10033 c0 -5 -2 -37 -2 -73 l-2 -65 -142 -3 -143 -3 0 -44 0
-45 380 0 380 0 0 45 0 45 -177 2 -178 3 -3 73 -3 72 -54 0 c-30 0 -55 -3 -56
-7z"/>
<path d="M24590 9825 l0 -45 160 0 160 0 0 -35 0 -35 -115 0 -116 0 3 -135 3
-136 268 0 c147 1 276 1 287 1 19 0 20 7 20 135 l0 135 -115 0 -115 0 0 35 0
35 160 0 160 0 0 45 0 45 -380 0 -380 0 0 -45z m558 -252 l3 -43 -175 0 -176
0 0 45 0 45 173 -2 172 -3 3 -42z"/>
<path d="M22700 9810 l0 -50 386 0 385 0 -3 48 -3 47 -382 3 -383 2 0 -50z"/>
<path d="M22328 9803 c-3 -28 -4 -28 -80 -31 l-78 -3 0 -44 0 -45 210 0 210 0
0 45 0 45 -75 0 -75 0 0 30 c0 30 -1 30 -54 30 -52 0 -55 -1 -58 -27z"/>
<path d="M25582 9610 c2 -94 6 -170 11 -170 4 0 129 0 277 0 l270 0 0 170 0
170 -60 0 -60 0 0 -40 0 -40 -160 0 -160 0 0 40 0 40 -60 0 -60 0 2 -170z
m438 -40 l0 -40 -160 0 -160 0 0 40 0 40 160 0 160 0 0 -40z"/>
<path d="M21939 9766 c-2 -2 -3 -74 -1 -160 l3 -156 79 0 c43 0 102 5 130 11
l51 11 -6 36 c-11 62 -8 60 -72 47 -32 -7 -61 -10 -65 -8 -5 2 -8 53 -8 114
l0 109 -53 0 c-30 0 -56 -2 -58 -4z"/>
<path d="M24022 9740 c-56 -12 -120 -48 -145 -82 -24 -32 -26 -92 -4 -135 11
-21 36 -41 74 -60 55 -27 65 -28 193 -28 126 0 138 2 190 27 65 32 90 68 90
131 0 94 -91 147 -260 153 -52 2 -114 -1 -138 -6z m245 -104 c38 -19 48 -42
29 -72 -23 -34 -76 -47 -182 -42 -85 4 -97 6 -120 30 -42 41 -19 78 61 99 46
12 178 3 212 -15z"/>
<path d="M19361 9725 c-110 -31 -158 -82 -148 -158 7 -49 34 -79 100 -109 47
-20 67 -23 197 -23 136 0 148 2 202 27 68 32 91 64 91 126 0 41 -4 49 -40 82
-23 20 -58 42 -80 49 -60 20 -258 24 -322 6z m260 -85 c77 -22 88 -79 21 -107
-57 -24 -216 -22 -267 3 -26 12 -41 27 -43 41 -4 24 25 54 61 65 35 10 189 9
228 -2z"/>
<path d="M22790 9565 l0 -125 298 2 297 3 3 48 3 47 -240 0 -241 0 0 75 0 75
-60 0 -60 0 0 -125z"/>
<path d="M28041 9659 c-35 -14 -50 -39 -51 -82 0 -27 7 -45 25 -62 28 -29 54
-31 94 -10 32 16 41 33 41 79 0 30 -30 76 -50 76 -4 0 -14 2 -22 4 -7 3 -24 0
-37 -5z"/>
<path d="M22303 9649 c-66 -19 -99 -92 -71 -154 38 -84 237 -92 292 -13 26 36
21 101 -10 132 -43 42 -133 57 -211 35z m123 -83 c15 -12 17 -19 8 -32 -23
-38 -104 -34 -104 4 0 40 56 57 96 28z"/>
</g>
</svg>
