<svg xmlns="http://www.w3.org/2000/svg" width="50" height="71" viewBox="0 0 50 71">
  <g id="그룹_38714" data-name="그룹 38714" transform="translate(-44 -493)">
    <rect id="사각형_36549" data-name="사각형 36549" width="50" height="50" rx="15" transform="translate(44 493)" fill="#fffbf3"/>
    <text id="스킨_보습" data-name="스킨/보습" transform="translate(46 561)" fill="#111" font-size="12" font-family="NotoSansCJKkr-Regular, Noto Sans CJK KR" letter-spacing="-0.05em"><tspan x="0" y="0">스킨/보습</tspan></text>
    <g id="그룹_38707" data-name="그룹 38707" transform="translate(13616.071 780.745)">
      <path id="패스_15558" data-name="패스 15558" d="M309.36,207.481a9.638,9.638,0,0,0-.949-3.521c-1.131-2.889-3.551-7.258-8.72-13.127-5.169,5.869-7.589,10.237-8.72,13.127a9.641,9.641,0,0,0-.949,3.522,4.206,4.206,0,0,0-.03.726,9.7,9.7,0,0,0,19.4,0A4.206,4.206,0,0,0,309.36,207.481Z" transform="translate(-13847.257 -467.363)" fill="#ff9915"/>
      <path id="패스_15559" data-name="패스 15559" d="M298.253,216.533a10.514,10.514,0,0,1-10.5-10.475,5.327,5.327,0,0,1,.034-.838,10.378,10.378,0,0,1,1.011-3.759c1.546-3.933,4.525-8.42,8.854-13.335l.6-.684.6.684c4.33,4.916,7.309,9.4,8.854,13.335a10.414,10.414,0,0,1,1.012,3.771,5.251,5.251,0,0,1,.033.825A10.514,10.514,0,0,1,298.253,216.533Zm0-26.653c-4.827,5.606-7,9.709-7.972,12.2l-.026.059a8.819,8.819,0,0,0-.869,3.229,4.063,4.063,0,0,0-.03.6l0,.062a8.9,8.9,0,1,0,17.791,0l0-.07h0a3.949,3.949,0,0,0-.029-.572l0-.025a8.807,8.807,0,0,0-.869-3.228l-.026-.06C305.252,199.59,303.081,195.487,298.253,189.88Z" transform="translate(-13845.818 -465.187)"/>
      <path id="패스_15560" data-name="패스 15560" d="M304.609,245.54a6.762,6.762,0,0,1-6.754-6.755h1.606a5.154,5.154,0,0,0,5.148,5.148Z" transform="translate(-13852.304 -498.131)"/>
    </g>
  </g>
</svg>
