<svg xmlns="http://www.w3.org/2000/svg" width="50" height="71" viewBox="0 0 50 71">
  <g id="그룹_38715" data-name="그룹 38715" transform="translate(-118 -493)">
    <rect id="사각형_36550" data-name="사각형 36550" width="50" height="50" rx="15" transform="translate(118 493)" fill="#fffbf3"/>
    <text id="샴푸_워시" data-name="샴푸/워시" transform="translate(120 561)" fill="#111" font-size="12" font-family="NotoSansCJKkr-Regular, Noto Sans CJK KR" letter-spacing="-0.05em"><tspan x="0" y="0">샴푸/워시</tspan></text>
    <g id="그룹_38710" data-name="그룹 38710" transform="translate(13617.475 787.984)">
      <g id="그룹_38706" data-name="그룹 38706" transform="translate(-13483.475 -286.984)">
        <path id="패스_15575" data-name="패스 15575" d="M405.155,222.268V235.84h16.551V222.268Zm10.974,9.051a1.352,1.352,0,0,1-1.737,1.034,2.9,2.9,0,0,0-1.744,0,1.352,1.352,0,0,1-1.042-2.483,3.871,3.871,0,0,0,.944-.778,1.345,1.345,0,0,1,1.942,0,3.861,3.861,0,0,0,.944.778A1.351,1.351,0,0,1,416.129,231.319Z" transform="translate(-404.284 -207.211)" fill="#ff9915"/>
        <g id="그룹_38705" data-name="그룹 38705" transform="translate(0 0)">
          <path id="패스_15576" data-name="패스 15576" d="M416.366,189.638V186.67h-1.785V185.1a3.784,3.784,0,0,1,1.727.609l2.408,1.677,2.961-3.7-2.767-2.048a8.2,8.2,0,0,0-4.569-1.388h-6.821v4.823h2.334v1.6h-2.3v2.968a5.771,5.771,0,0,0-4.832,5.684v13.615a5.773,5.773,0,0,0,5.766,5.766h6.94a5.773,5.773,0,0,0,5.766-5.766V195.322A5.771,5.771,0,0,0,416.366,189.638Zm-7.239-7.782h5.214a6.575,6.575,0,0,1,3.644,1.095l1.4,1.033-.982,1.227-1.187-.827a5.412,5.412,0,0,0-3.016-.917h-5.07Zm2.334,3.217h1.514v1.6h-1.514Zm3.3,3.2v1.28h-5.6v-1.28Zm-6.268,2.886h6.94a4.165,4.165,0,0,1,4.081,3.357h-15.1A4.165,4.165,0,0,1,408.491,191.162Zm-4.16,16.928V196.125h15.26V208.09Zm11.1,5.007h-6.94a4.164,4.164,0,0,1-4.087-3.4h15.114A4.164,4.164,0,0,1,415.431,213.1Z" transform="translate(-402.725 -180.25)"/>
          <path id="패스_15577" data-name="패스 15577" d="M424.641,239.2a3.2,3.2,0,0,1-.741-.625,2.148,2.148,0,0,0-3.1,0,3.212,3.212,0,0,1-.741.625,2.155,2.155,0,0,0,.6,4.018,2.176,2.176,0,0,0,1.064-.062,2.1,2.1,0,0,1,1.257,0,2.155,2.155,0,0,0,1.662-3.957Zm-.473,2.012a.552.552,0,0,1-.426.428.566.566,0,0,1-.277-.013,3.7,3.7,0,0,0-2.231,0,.569.569,0,0,1-.278.014.549.549,0,0,1-.144-1.022,4.627,4.627,0,0,0,1.146-.931.555.555,0,0,1,.783,0,4.622,4.622,0,0,0,1.146.931A.549.549,0,0,1,424.168,241.215Z" transform="translate(-413.113 -217.252)"/>
          <rect id="사각형_36740" data-name="사각형 36740" width="1.342" height="1.342" transform="translate(7.073 18.222)"/>
          <rect id="사각형_36741" data-name="사각형 36741" width="1.342" height="1.342" transform="translate(4.736 19.988)"/>
          <rect id="사각형_36742" data-name="사각형 36742" width="1.342" height="1.342" transform="translate(12.395 19.988)"/>
          <rect id="사각형_36743" data-name="사각형 36743" width="1.342" height="1.342" transform="translate(10.057 18.222)"/>
        </g>
      </g>
    </g>
  </g>
</svg>
