<svg xmlns="http://www.w3.org/2000/svg" width="50" height="71" viewBox="0 0 50 71">
  <g id="그룹_38716" data-name="그룹 38716" transform="translate(-192 -493)">
    <rect id="사각형_36551" data-name="사각형 36551" width="50" height="50" rx="15" transform="translate(192 493)" fill="#fffbf3"/>
    <text id="귀_케어" data-name="귀 케어" transform="translate(200 561)" fill="#111" font-size="12" font-family="NotoSansCJKkr-Regular, Noto Sans CJK KR" letter-spacing="-0.05em"><tspan x="0" y="0">귀 케어</tspan></text>
    <g id="그룹_38711" data-name="그룹 38711" transform="translate(13620.96 789.984)">
      <path id="패스_15554" data-name="패스 15554" d="M546.969,195.01v-2.634a5.222,5.222,0,0,0-3.914-5.1,4.436,4.436,0,0,0-1.167-.139v5.086a5.328,5.328,0,0,0-1.137-3.13,1.356,1.356,0,0,0-.085-.191c-1-1.837-3.853-1.766-3.853-1.766v2.42l.107.025v3.4h-1.365c0,.021-1.35.431-1.353.452-.775,4.835,3.085,9.223,8.585,10.157a9.989,9.989,0,0,0,5.842-.613C547.2,195.358,546.969,195.01,546.969,195.01Z" transform="translate(-13940.699 -473.319)" fill="#ff9915"/>
      <path id="패스_15572" data-name="패스 15572" d="M529.49,214.922l-.164-.941c-1.467-8.418-3.272-18.447-3.9-20.509v-2.536a5.986,5.986,0,0,0-4.525-5.875,5.238,5.238,0,0,0-1.4-.165l-.762.04v1.839a5.834,5.834,0,0,0-2.911-1.714,5.242,5.242,0,0,0-1.4-.165l-.761.04v5.506a6.88,6.88,0,0,0-6.486,6.088l-7.969.362v4.269a7.022,7.022,0,0,0,7.014,7.014H509A1.83,1.83,0,0,1,510.823,210v4.918Zm-14.042-28.3a4.36,4.36,0,0,1,3.268,3.805h-3.444v-3.844C515.327,186.594,515.387,186.607,515.447,186.622ZM509,206.57h-2.772a5.414,5.414,0,0,1-5.408-5.408v-2.734l7.926-.36V197.3a5.274,5.274,0,0,1,5.268-5.268h6.334v-1.1h.009c0-.068-.006-.135-.009-.2v-4.151c.057.011.116.024.176.039a4.386,4.386,0,0,1,3.3,4.315v2.875l.082.123c.126.408.834,3.107,3.678,19.381h-15.15V210A3.438,3.438,0,0,0,509,206.57Z" transform="translate(-13918.31 -471.879)"/>
    </g>
  </g>
</svg>
