<svg xmlns="http://www.w3.org/2000/svg" width="50" height="71" viewBox="0 0 50 71">
  <g id="그룹_38717" data-name="그룹 38717" transform="translate(-266 -493)">
    <rect id="사각형_36552" data-name="사각형 36552" width="50" height="50" rx="15" transform="translate(266 493)" fill="#fffbf3"/>
    <text id="눈_케어" data-name="눈 케어" transform="translate(274 561)" fill="#111" font-size="12" font-family="NotoSansCJKkr-Regular, Noto Sans CJK KR" letter-spacing="-0.05em"><tspan x="0" y="0">눈 케어</tspan></text>
    <g id="그룹_38713" data-name="그룹 38713" transform="translate(13622.646 789.206)">
      <g id="그룹_38701" data-name="그룹 38701" transform="translate(-13346.646 -280.206)">
        <path id="패스_15570" data-name="패스 15570" d="M644.936,213.672a14.465,14.465,0,0,0-4.922-5.2,18.669,18.669,0,0,0-20.821,0,14.463,14.463,0,0,0-4.922,5.2l-.167.36.167.359a14.455,14.455,0,0,0,4.922,5.2,18.665,18.665,0,0,0,20.821,0,14.447,14.447,0,0,0,4.922-5.2l.167-.359Zm-21.275.36a5.942,5.942,0,1,1,5.943,5.943A5.949,5.949,0,0,1,623.662,214.032Zm-7.645,0a14.086,14.086,0,0,1,4.133-4.147,16.643,16.643,0,0,1,5.578-2.43,7.625,7.625,0,0,0,0,13.157,16.63,16.63,0,0,1-5.58-2.432A14.081,14.081,0,0,1,616.016,214.032Zm23.042,4.147a16.628,16.628,0,0,1-5.58,2.432,7.625,7.625,0,0,0,0-13.157,16.633,16.633,0,0,1,5.579,2.431,14.1,14.1,0,0,1,4.133,4.147A14.09,14.09,0,0,1,639.058,218.179Z" transform="translate(-614.104 -205.304)"/>
        <ellipse id="타원_4019" data-name="타원 4019" cx="3.99" cy="3.99" rx="3.99" ry="3.99" transform="translate(11.511 4.738)" fill="#ff9915"/>
        <path id="패스_15571" data-name="패스 15571" d="M647.012,225.22a4.841,4.841,0,1,1,4.84-4.841A4.846,4.846,0,0,1,647.012,225.22Zm0-7.979a3.139,3.139,0,1,0,3.138,3.138A3.143,3.143,0,0,0,647.012,217.241Z" transform="translate(-631.512 -211.652)"/>
      </g>
    </g>
  </g>
</svg>
