<svg xmlns="http://www.w3.org/2000/svg" width="50" height="71" viewBox="0 0 50 71">
  <g id="그룹_38721" data-name="그룹 38721" transform="translate(-44 -583)">
    <rect id="사각형_36556" data-name="사각형 36556" width="50" height="50" rx="15" transform="translate(44 583)" fill="#fffbf3"/>
    <text id="풋_케어" data-name="풋 케어" transform="translate(52 651)" fill="#111" font-size="12" font-family="NotoSansCJKkr-Regular, Noto Sans CJK KR" letter-spacing="-0.05em"><tspan x="0" y="0">풋 케어</tspan></text>
    <g id="그룹_38708" data-name="그룹 38708" transform="translate(13616.214 822.836)">
      <g id="그룹_38698" data-name="그룹 38698" transform="translate(-13838.85 -563.486)">
        <path id="패스_15561" data-name="패스 15561" d="M308.947,368.431a19.075,19.075,0,0,1-3.965-4.169,5.9,5.9,0,0,0-9.646,0,19.1,19.1,0,0,1-3.966,4.169,5.893,5.893,0,0,0-2.306,5.055,5.914,5.914,0,0,0,7.107,5.417,19.614,19.614,0,0,1,7.977,0,5.906,5.906,0,0,0,4.8-10.472Z" transform="translate(-8.952 -16.834)" fill="#ff9915"/>
        <path id="패스_15562" data-name="패스 15562" d="M303.966,378.485a6.819,6.819,0,0,1-1.383-.142,18.868,18.868,0,0,0-7.63,0,6.985,6.985,0,0,1-1.46.141,6.755,6.755,0,0,1-4.029-12.119,18.218,18.218,0,0,0,3.788-3.984,6.747,6.747,0,0,1,11.034,0,18.19,18.19,0,0,0,3.788,3.983,6.755,6.755,0,0,1-4.03,12.12Zm-5.2-2.23a20.488,20.488,0,0,1,4.163.425,5.883,5.883,0,0,0,1.095.106,5.133,5.133,0,0,0,4.991-4.742,5.06,5.06,0,0,0-1.975-4.329h0a19.9,19.9,0,0,1-4.143-4.354,5.049,5.049,0,0,0-8.257,0,19.9,19.9,0,0,1-4.143,4.354,5.059,5.059,0,0,0-1.975,4.329,5.132,5.132,0,0,0,4.99,4.743,5.661,5.661,0,0,0,1.1-.106A20.458,20.458,0,0,1,298.767,376.255Z" transform="translate(-7.562 -15.442)"/>
        <circle id="타원_4015" data-name="타원 4015" cx="3.027" cy="3.027" r="3.027" transform="matrix(0.229, -0.973, 0.973, 0.229, 282.311, 340.862)" fill="#ff9915"/>
        <path id="패스_15563" data-name="패스 15563" d="M298.136,342.618a3.876,3.876,0,1,1,3.876-3.876A3.88,3.88,0,0,1,298.136,342.618Zm0-6.053a2.177,2.177,0,1,0,2.177,2.177A2.18,2.18,0,0,0,298.136,336.565Z" transform="translate(-12.186 -0.134)"/>
        <circle id="타원_4016" data-name="타원 4016" cx="3.027" cy="3.027" r="3.027" transform="translate(275.039 347.737) rotate(-80.759)" fill="#ff9915"/>
        <path id="패스_15564" data-name="패스 15564" d="M278.512,360.1a3.876,3.876,0,1,1,3.876-3.876A3.88,3.88,0,0,1,278.512,360.1Zm0-6.054a2.178,2.178,0,1,0,2.178,2.178A2.18,2.18,0,0,0,278.512,354.048Z" transform="translate(0 -10.99)"/>
        <circle id="타원_4017" data-name="타원 4017" cx="3.027" cy="3.027" r="3.027" transform="matrix(0.152, -0.988, 0.988, 0.152, 300.605, 347.766)" fill="#ff9915"/>
        <path id="패스_15565" data-name="패스 15565" d="M345.907,360.1a3.876,3.876,0,1,1,3.876-3.876A3.88,3.88,0,0,1,345.907,360.1Zm0-6.054a2.178,2.178,0,1,0,2.177,2.178A2.18,2.18,0,0,0,345.907,354.048Z" transform="translate(-41.849 -10.99)"/>
        <circle id="타원_4018" data-name="타원 4018" cx="3.027" cy="3.027" r="3.027" transform="translate(292.173 336.978) rotate(-22.616)" fill="#ff9915"/>
        <path id="패스_15566" data-name="패스 15566" d="M325,342.618a3.876,3.876,0,1,1,3.876-3.876A3.88,3.88,0,0,1,325,342.618Zm0-6.053a2.177,2.177,0,1,0,2.178,2.177A2.18,2.18,0,0,0,325,336.565Z" transform="translate(-28.864 -0.134)"/>
      </g>
    </g>
  </g>
</svg>
