<svg xmlns="http://www.w3.org/2000/svg" width="50" height="71" viewBox="0 0 50 71">
  <g id="그룹_38720" data-name="그룹 38720" transform="translate(-118 -583)">
    <rect id="사각형_36555" data-name="사각형 36555" width="50" height="50" rx="15" transform="translate(118 583)" fill="#fffbf3"/>
    <text id="덴탈_케어" data-name="덴탈 케어" transform="translate(121 651)" fill="#111" font-size="12" font-family="NotoSansCJKkr-Regular, Noto Sans CJK KR" letter-spacing="-0.05em"><tspan x="0" y="0">덴탈 케어</tspan></text>
    <g id="그룹_38709" data-name="그룹 38709" transform="translate(13618.879 826.098)">
      <g id="그룹_38697" data-name="그룹 38697" transform="translate(-13494.879 -233.098)">
        <path id="패스_15555" data-name="패스 15555" d="M407.095,394.175a.992.992,0,0,0,1.658-.52l1.081-5.527h-6.225A10.977,10.977,0,0,0,407.095,394.175Z" transform="translate(-396.622 -365.976)" fill="#ff9915"/>
        <path id="패스_15556" data-name="패스 15556" d="M444.176,388.128l1.081,5.527a.992.992,0,0,0,1.658.52,10.98,10.98,0,0,0,3.486-6.047Z" transform="translate(-419.368 -365.976)" fill="#ff9915"/>
        <g id="그룹_38696" data-name="그룹 38696" transform="translate(0)">
          <rect id="사각형_36733" data-name="사각형 36733" width="1.53" height="1.53" transform="translate(29.231 13.393)"/>
          <rect id="사각형_36734" data-name="사각형 36734" width="1.53" height="1.53" transform="translate(26.884 15.808)"/>
          <rect id="사각형_36735" data-name="사각형 36735" width="1.53" height="1.53" transform="translate(31.579 15.808)"/>
          <rect id="사각형_36736" data-name="사각형 36736" width="1.53" height="1.53" transform="translate(7.119 13.393)"/>
          <rect id="사각형_36737" data-name="사각형 36737" width="1.53" height="1.53" transform="translate(4.772 15.808)"/>
          <rect id="사각형_36738" data-name="사각형 36738" width="1.53" height="1.53" transform="translate(9.467 15.808)"/>
          <path id="패스_15557" data-name="패스 15557" d="M425.373,351.765H423.4a7.941,7.941,0,0,1-15.882,0h-.011v-2.381l6.129-3.81,0-7.873H399.416l.006,7.878,6.121,3.8v2.6a7.937,7.937,0,0,1-15.871-.215H387.7a9.923,9.923,0,0,0,6.021,9.113,12.709,12.709,0,0,0,3.59,5.738,1.984,1.984,0,0,0,1.972.448,1.967,1.967,0,0,0,1.329-1.495l.921-4.707a9.959,9.959,0,0,0,5-4.819,9.962,9.962,0,0,0,4.979,4.808l.923,4.718a1.967,1.967,0,0,0,1.329,1.5,1.984,1.984,0,0,0,1.972-.448,12.715,12.715,0,0,0,3.586-5.726A9.924,9.924,0,0,0,425.373,351.765Zm-26.707,13.419a11.319,11.319,0,0,1-2.61-3.644,9.3,9.3,0,0,0,3.341-.035Zm13.009-25.514,0,4.616h-1.987v-2.255h-1.969v4.224h1.1l-2.287,1.422-2.288-1.422h1.1v-4.224h-1.969v2.255H401.39l0-4.616Zm2.7,25.52-.721-3.69a9.322,9.322,0,0,0,3.353.042A11.325,11.325,0,0,1,414.372,365.19Z" transform="translate(-387.703 -337.701)"/>
        </g>
      </g>
    </g>
  </g>
</svg>
