<svg xmlns="http://www.w3.org/2000/svg" width="50" height="71" viewBox="0 0 50 71">
  <g id="그룹_38719" data-name="그룹 38719" transform="translate(-192 -583)">
    <rect id="사각형_36553" data-name="사각형 36553" width="50" height="50" rx="15" transform="translate(192 583)" fill="#fffbf3"/>
    <text id="향수_탈취" data-name="향수/탈취" transform="translate(194 651)" fill="#111" font-size="12" font-family="NotoSansCJKkr-Regular, Noto Sans CJK KR" letter-spacing="-0.05em"><tspan x="0" y="0">향수/탈취</tspan></text>
    <g id="그룹_38700" data-name="그룹 38700" transform="translate(-309.772 267.345)">
      <path id="패스_15567" data-name="패스 15567" d="M529.681,324.9v5.65h.62a1.8,1.8,0,0,1,1.8,1.8v1.628h5.089v-.986a2.443,2.443,0,0,1,2.443-2.441h4.123V324.9Z" transform="translate(-7.929 -1.376)" fill="#ff9915"/>
      <rect id="사각형_36739" data-name="사각형 36739" width="8.293" height="3.514" transform="translate(522.569 340.932)" fill="#ff9915"/>
      <g id="그룹_38699" data-name="그룹 38699" transform="translate(516.772 322.655)">
        <path id="패스_15568" data-name="패스 15568" d="M531.457,334.73v-3.2h-1.325a1.577,1.577,0,0,1,1.57-1.5h.174l3.549,4.563,1.365-1.062-2.723-3.5h2.623v-7.379h-15.8v7.379h1.485a.935.935,0,0,1,.934.934v.566h-1.333v3.2a6.212,6.212,0,0,0-5.2,6.118v15.166a3.158,3.158,0,0,0,3.154,3.155H533.5a3.158,3.158,0,0,0,3.155-3.155V340.848A6.212,6.212,0,0,0,531.457,334.73Zm-1.729-1.466v1.377H523.7v-1.377Zm5.233-4.958h-1.35v-3.921h1.35Zm-12.344.011v-3.932h9.265V328.3H531.7a3.31,3.31,0,0,0-3.3,3.229h-3.364v-.566A2.666,2.666,0,0,0,522.617,328.316Zm12.313,27.7a1.427,1.427,0,0,1-1.426,1.426H519.926a1.427,1.427,0,0,1-1.425-1.426V340.848a4.483,4.483,0,0,1,4.478-4.478h7.471a4.483,4.483,0,0,1,4.479,4.478Z" transform="translate(-516.772 -322.655)"/>
        <path id="패스_15569" data-name="패스 15569" d="M529.556,373.031h10.022v-5.244H529.556Zm1.729-3.515h6.564V371.3h-6.564Z" transform="translate(-524.624 -350.375)"/>
      </g>
    </g>
  </g>
</svg>
