<svg xmlns="http://www.w3.org/2000/svg" width="50" height="71" viewBox="0 0 50 71">
  <g id="그룹_38718" data-name="그룹 38718" transform="translate(-266 -583)">
    <rect id="사각형_36554" data-name="사각형 36554" width="50" height="50" rx="15" transform="translate(266 583)" fill="#fffbf3"/>
    <text id="기타" transform="translate(281 651)" fill="#111" font-size="12" font-family="NotoSansCJKkr-Regular, Noto Sans CJK KR" letter-spacing="-0.05em"><tspan x="0" y="0">기타</tspan></text>
    <g id="그룹_38712" data-name="그룹 38712" transform="translate(13617 826.7)">
      <g id="그룹_38704" data-name="그룹 38704" transform="translate(-13954.293 -559.617)">
        <path id="패스_15573" data-name="패스 15573" d="M638.5,337.487l-13.634,13.634a7.112,7.112,0,1,1-3.87-3.87l13.635-13.635a7.108,7.108,0,1,1,3.87,3.87Z" transform="translate(-1.452 -1.451)" fill="#ff9915"/>
        <g id="그룹_38703" data-name="그룹 38703" transform="translate(614.293 326.917)">
          <g id="그룹_38702" data-name="그룹 38702">
            <path id="패스_15574" data-name="패스 15574" d="M639.3,329.909a3.7,3.7,0,1,1-2.085,7.061l-3.95,3.95,3.95,3.95a3.661,3.661,0,0,1,1.38-.273,5.361,5.361,0,1,1-6.623,6.623,3.664,3.664,0,0,1,.273-1.38l-3.95-3.95-3.95,3.95a5.106,5.106,0,1,1-6.355-5.237,3.626,3.626,0,0,1,1.385.268l3.95-3.95-3.955-3.95a5.109,5.109,0,1,1,5.243-6.355,3.766,3.766,0,0,1-.268,1.385l3.95,3.95,3.95-3.95a3.625,3.625,0,0,1-.268-1.385,3.7,3.7,0,0,1,7.323-.706Zm1.447,3.631a2.155,2.155,0,0,0-2.153-2.153h-.772v-.772a2.15,2.15,0,1,0-3.981,1.128l.324.52-14.528,14.523-.515-.319a2.151,2.151,0,1,0-1.133,3.981h.773v.772a2.153,2.153,0,1,0,4.305,0,2.184,2.184,0,0,0-.32-1.128l-.324-.52,14.523-14.522.52.319a2.146,2.146,0,0,0,3.281-1.828Zm0,14.754a2.144,2.144,0,0,0-3.286-1.823l-.515.314-4.774-4.774-2.786,2.786,4.774,4.774-.319.515a2.2,2.2,0,0,0-.324,1.133,2.153,2.153,0,0,0,4.305,0v-.772h.772A2.152,2.152,0,0,0,640.748,348.294Zm-16.33-8.466,2.786-2.786-4.774-4.774.314-.52a2.152,2.152,0,1,0-3.981-1.133v.772h-.773a2.153,2.153,0,1,0,1.133,3.981l.52-.314Z" transform="translate(-614.293 -326.917)"/>
          </g>
        </g>
      </g>
    </g>
  </g>
</svg>
